<svg id="visual" viewBox="0 0 900 450" width="900" height="450" xmlns="http://www.w3.org/2000/svg" xmlns:xlink="http://www.w3.org/1999/xlink" version="1.1"><rect x="0" y="0" width="900" height="450" fill="#041C32"></rect><defs><linearGradient id="grad1_0" x1="50%" y1="0%" x2="100%" y2="100%"><stop offset="10%" stop-color="#041c32" stop-opacity="1"></stop><stop offset="90%" stop-color="#041c32" stop-opacity="1"></stop></linearGradient></defs><defs><linearGradient id="grad2_0" x1="0%" y1="0%" x2="50%" y2="100%"><stop offset="10%" stop-color="#041c32" stop-opacity="1"></stop><stop offset="90%" stop-color="#041c32" stop-opacity="1"></stop></linearGradient></defs><g transform="translate(900, 0)"><path d="M0 247.5C-35.5 245 -71 242.4 -92.2 222.7C-113.5 202.9 -120.5 165.9 -144.2 144.2C-168 122.6 -208.7 116.2 -228.7 94.7C-248.7 73.2 -248.1 36.6 -247.5 0L0 0Z" fill="#ECB365"></path></g><g transform="translate(0, 450)"><path d="M0 -247.5C26.1 -226.3 52.2 -205.1 80 -193.1C107.8 -181.1 137.2 -178.3 164 -164C190.9 -149.8 215.2 -124 228.7 -94.7C242.1 -65.5 244.8 -32.7 247.5 0L0 0Z" fill="#ECB365"></path></g></svg>