<svg id="visual" viewBox="0 0 900 450" width="900" height="450" xmlns="http://www.w3.org/2000/svg" xmlns:xlink="http://www.w3.org/1999/xlink" version="1.1"><rect x="0" y="0" width="900" height="450" fill="#ECB365"></rect><path d="M0 322L25 330C50 338 100 354 150 357.2C200 360.3 250 350.7 300 342.5C350 334.3 400 327.7 450 328.2C500 328.7 550 336.3 600 345.3C650 354.3 700 364.7 750 372.3C800 380 850 385 875 387.5L900 390L900 451L875 451C850 451 800 451 750 451C700 451 650 451 600 451C550 451 500 451 450 451C400 451 350 451 300 451C250 451 200 451 150 451C100 451 50 451 25 451L0 451Z" fill="#041C32" stroke-linecap="round" stroke-linejoin="miter"></path></svg>