<svg id="visual" viewBox="0 0 900 450" width="900" height="450" xmlns="http://www.w3.org/2000/svg" xmlns:xlink="http://www.w3.org/1999/xlink" version="1.1"><rect x="0" y="0" width="900" height="450" fill="#ECB365"></rect><path d="M0 278L21.5 283.5C43 289 86 300 128.8 300.5C171.7 301 214.3 291 257.2 283.8C300 276.7 343 272.3 385.8 277.3C428.7 282.3 471.3 296.7 514.2 297.5C557 298.3 600 285.7 642.8 286.8C685.7 288 728.3 303 771.2 309.7C814 316.3 857 314.7 878.5 313.8L900 313L900 451L878.5 451C857 451 814 451 771.2 451C728.3 451 685.7 451 642.8 451C600 451 557 451 514.2 451C471.3 451 428.7 451 385.8 451C343 451 300 451 257.2 451C214.3 451 171.7 451 128.8 451C86 451 43 451 21.5 451L0 451Z" fill="#041c32"></path><path d="M0 351L21.5 349.3C43 347.7 86 344.3 128.8 335.3C171.7 326.3 214.3 311.7 257.2 307.3C300 303 343 309 385.8 314.2C428.7 319.3 471.3 323.7 514.2 326.5C557 329.3 600 330.7 642.8 331.5C685.7 332.3 728.3 332.7 771.2 332.5C814 332.3 857 331.7 878.5 331.3L900 331L900 451L878.5 451C857 451 814 451 771.2 451C728.3 451 685.7 451 642.8 451C600 451 557 451 514.2 451C471.3 451 428.7 451 385.8 451C343 451 300 451 257.2 451C214.3 451 171.7 451 128.8 451C86 451 43 451 21.5 451L0 451Z" fill="#06263e"></path><path d="M0 360L21.5 358.5C43 357 86 354 128.8 354.8C171.7 355.7 214.3 360.3 257.2 363C300 365.7 343 366.3 385.8 360.2C428.7 354 471.3 341 514.2 341.7C557 342.3 600 356.7 642.8 359.5C685.7 362.3 728.3 353.7 771.2 346.8C814 340 857 335 878.5 332.5L900 330L900 451L878.5 451C857 451 814 451 771.2 451C728.3 451 685.7 451 642.8 451C600 451 557 451 514.2 451C471.3 451 428.7 451 385.8 451C343 451 300 451 257.2 451C214.3 451 171.7 451 128.8 451C86 451 43 451 21.5 451L0 451Z" fill="#07304a"></path><path d="M0 380L21.5 383.3C43 386.7 86 393.3 128.8 396.7C171.7 400 214.3 400 257.2 396C300 392 343 384 385.8 383C428.7 382 471.3 388 514.2 390.2C557 392.3 600 390.7 642.8 392.3C685.7 394 728.3 399 771.2 397.3C814 395.7 857 387.3 878.5 383.2L900 379L900 451L878.5 451C857 451 814 451 771.2 451C728.3 451 685.7 451 642.8 451C600 451 557 451 514.2 451C471.3 451 428.7 451 385.8 451C343 451 300 451 257.2 451C214.3 451 171.7 451 128.8 451C86 451 43 451 21.5 451L0 451Z" fill="#073b56"></path><path d="M0 423L21.5 418.3C43 413.7 86 404.3 128.8 401.3C171.7 398.3 214.3 401.7 257.2 402.3C300 403 343 401 385.8 400.3C428.7 399.7 471.3 400.3 514.2 402.8C557 405.3 600 409.7 642.8 409.7C685.7 409.7 728.3 405.3 771.2 404.5C814 403.7 857 406.3 878.5 407.7L900 409L900 451L878.5 451C857 451 814 451 771.2 451C728.3 451 685.7 451 642.8 451C600 451 557 451 514.2 451C471.3 451 428.7 451 385.8 451C343 451 300 451 257.2 451C214.3 451 171.7 451 128.8 451C86 451 43 451 21.5 451L0 451Z" fill="#064663"></path></svg>